<?xml version="1.0" encoding="UTF-8"?><svg xmlns="http://www.w3.org/2000/svg" xmlns:xlink="http://www.w3.org/1999/xlink" viewBox="0 0 50 50" version="1.1"><path d="M44.781 13.156c-.781-2.789-2.328-4.992-4.593-6.55-2.86-1.973-6.149-2.668-8.989-3.094-3.93-.586-7.488-.668-10.883-.254-3.18.39-5.574 1.012-7.757 2.015-4.282 1.97-6.852 5.153-7.637 9.461a58.837 58.837 0 0 0-.79 5.79c-.343 4.171-.03 7.863.954 11.285.96 3.336 2.637 5.718 5.125 7.285.633.398 1.445.687 2.23.965.446.156.88.308 1.235.476.328.153.328.18.324.453-.027 2.371 0 7.02 0 7.02l.008.992h1.781l.29-.281c.19-.18 4.605-4.446 6.179-6.164l.215-.239c.27-.312.27-.312.547-.316 2.125-.043 4.296-.125 6.453-.242 2.613-.14 5.64-.395 8.492-1.582 2.61-1.09 4.515-2.82 5.66-5.14 1.195-2.423 1.902-5.044 2.168-8.016.469-5.227.137-9.762-1.012-13.864zM35.383 33.48c-.656 1.067-1.633 1.81-2.785 2.29-.844.351-1.703.277-2.535-.075-6.965-2.949-12.43-7.593-16.04-14.273-.746-1.375-1.261-2.875-1.855-4.328-.121-.297-.113-.649-.168-.977.05-2.347 1.852-3.672 3.672-4.07.695-.156 1.312.09 1.828.586a16.005 16.005 0 0 1 3.41 4.715c.371.777.203 1.465-.43 2.043-.132.12-.27.23-.414.34-1.445 1.085-1.656 1.91-.886 3.546 1.312 2.785 3.492 4.657 6.308 5.817.742.304 1.442.152 2.008-.45.078-.078.164-.156.219-.25 1.11-1.851 2.723-1.667 4.21-.613.977.696 1.927 1.43 2.891 2.137 1.473 1.082 1.461 2.098.567 3.562zM26.145 15c-.329 0-.657.027-.98.082a.999.999 0 1 1-.328-1.973c.429-.074.87-.109 1.308-.109C30.477 13 34 16.523 34 20.855c0 .442-.035.883-.11 1.31a1 1 0 0 1-1.972-.33A5.865 5.865 0 0 0 26.145 15zM31 21c0 .55-.45 1-1 1s-1-.45-1-1c0-1.652-1.348-3-3-3-.55 0-1-.45-1-1s.45-1 1-1c2.758 0 5 2.242 5 5zm5.71 2.223a1 1 0 0 1-1.952-.446 8.875 8.875 0 0 0 .219-1.96c0-4.86-3.957-8.817-8.817-8.817-.664 0-1.324.074-1.96.219a.996.996 0 0 1-1.196-.754.996.996 0 0 1 .754-1.195c.781-.18 1.59-.27 2.402-.27 5.965 0 10.817 4.852 10.817 10.816 0 .813-.09 1.622-.266 2.407z" id="surface1"/><metadata><rdf:RDF xmlns:rdf="http://www.w3.org/1999/02/22-rdf-syntax-ns#" xmlns:rdfs="http://www.w3.org/2000/01/rdf-schema#" xmlns:dc="http://purl.org/dc/elements/1.1/"><rdf:Description about="https://iconscout.com/legal#licenses" dc:title="viber,filled" dc:description="viber,filled" dc:publisher="Iconscout" dc:date="2017-12-09" dc:format="image/svg+xml" dc:language="en"><dc:creator><rdf:Bag><rdf:li>Icons8</rdf:li></rdf:Bag></dc:creator></rdf:Description></rdf:RDF></metadata></svg>